<svg version="1.2" xmlns="http://www.w3.org/2000/svg" viewBox="0 0 994 683" width="994" height="683"><style>.a{fill:#02a549}.b{fill:#fff;stroke:#000;stroke-miterlimit:100;stroke-width:2}.c{fill:#0249a5}.d{stroke:#000;stroke-width:30}</style><path fill-rule="evenodd" class="a" d="m5 314l39.1 1.7 20.7-42.5 35.6-5.2 33.9 25.3 128.3 35.8 142.4 101.2-41.4 116.9-177.1 11.9-181.5 108.9z"/><path class="b" d="m312 293l78.7-70.3-293.7-37.7-10-173.4 395 10.8-4 155.6 0.2 46.7zm380.1 7.4l-26.5-72.3 241.5-35.7-8.2-136.8-376.9-25.8 4.1 155.6 74.2 45.7z"/><path fill-rule="evenodd" class="c" d="m982 318l-39.1 1.7-20.7-42.5-35.6-5.2-33.9 25.3-128.3 35.8-142.4 101.2 41.4 116.9 177.1 11.9 181.5 108.9z"/><path class="d" d="m290.9 34v145.2m-51.9-93.3h103.7"/><path  d="m666.9 59c-38.2 0.7-68.9 31.9-68.9 70.2 0 38.8 31.5 70.3 70.2 70.3 18.2 0 34.7-6.9 47.2-18.2-8.8 5-19 7.9-29.9 7.9-33.1 0-59.9-26.8-59.9-59.9 0-33.1 26.8-60 59.9-60 11 0 21.2 2.9 30.1 8.1-12.5-11.4-29.1-18.4-47.4-18.4q-0.6 0-1.3 0zm93.4 70.3l-60.4 19.6 37.4-51.4v63.5l-37.4-51.4z"/></svg>