<svg version="1.2" xmlns="http://www.w3.org/2000/svg" viewBox="0 0 1519 702" width="1519" height="702"><defs><filter x="-50%" y="-50%" width="200%" height="200%" id="f1" ><feDropShadow dx="-12.99038105676658" dy="7.499999999999999" stdDeviation="2.5" flood-color="#000000" flood-opacity=".5"/></filter><filter x="-50%" y="-50%" width="200%" height="200%" id="f2" ><feDropShadow dx="-33.77499074759311" dy="19.499999999999996" stdDeviation="7.083333333333334" flood-color="#000000" flood-opacity=".6"/></filter></defs><style>.a{filter:url(#f1);fill:#006606;stroke:#fff;stroke-linecap:round;stroke-linejoin:round;stroke-width:2}.b{filter:url(#f2);fill:#006606;stroke:#fff;stroke-linecap:round;stroke-linejoin:round;stroke-width:2}</style><path class="a" d="m1536.9 736.5l-13.5 31.3-26.2 8.4-44.9-33.5-28.1-70.9 29.3 13.1 25.7 1.7-20-17.6-27.9-20.1-7.2-18.3 6.7-19.6 7.9 11.3 35.5 8.7-24.8-19.9-7.1-19.1 32.6-51.9 69.4 30.7 3.7 21.6-15.4 47.3 31.3-38.7 2.2-26.3 21.8 19 3.2 29-22.2 29.8-17.9 24 15.3-6.8 28.3-26 7.5-11.5 11.5 39.2-2.3 45.3-11.8 24.2-39.4 16.1zm-8-516.7l23.3 6.7 8.3 17.7-19.5 34.7-47.4 26.3 6.6-21.9-1.2-18.2-10.5 15.6-11.6 21.6-12.3 6.7-14.4-2.9 7.2-6.7 2.9-25.7-11.8 19.2-12.8 6.8-39.5-18.2 15.3-51.7 14.8-4.6 34.8 6.5-30.1-18.5-18.8 0.9 11.4-17.1 20.2-4.9 23 12.8 18.5 10.5-6.1-10.2-21-17.6-8.7-4.2 26.5-11.7 32.2-2.5 18.1 6.1 14.9 26.3zm15.9 253.4l-2.2 26.5-41.6 20.5-43.8-12.3 25.2-15.4 15-23.8-18 18.4-30.2 19-31.6-22.7 29.9-5.4 28.7-18.2-35 14.7-26.9 3.1-12.1-17.7 30.8-0.4 25.1-12.4-31.9 9.4-19.3-3.8-7.5-0.3-12-30.7 19.9-25.9 21 6.8 21.1 16.4-14.3-18.6-23.7-10.6 25.4-13.3 16.7 10.7 19.1 32.9-4.7-20.7-13.6-18.1-11.6-7.5 32.2-3.1 16.5 31.1 6.9 19.2-9.1-33.6-11.9-19.2 30.5 7.3 9.9 22.7 1.8 26.5 6.2-5.5-1.8-23.4-6.3-16.6 34.1 23 12.7 21.9-6.2 30.7-38.7-1.8z"/><path class="b" d="m1549 319.4l27.9 8.4 9.7 21.4-24 41.3-57.3 30.9 8.2-26.1-1.1-22-12.9 18.7-14.3 25.6-14.8 7.9-17.3-3.7 8.8-7.9 3.9-30.9-14.4 23-15.5 7.9-47.2-22.5 19.2-61.8 17.9-5.3 41.6 8.3-35.9-22.6-22.5 0.7 14-20.3 24.3-5.6 27.4 15.8 22.1 12.8-7.3-12.2-24.8-21.5-10.4-5.2 32-13.6 38.6-2.5 21.7 7.6 17.5 31.8zm-44.3 381l-29.7 35.7-79.9-11.9-50.5-61.2 51.4 3 45.2-19.3-44.2 8.6-62.1-3-22.7-63.8 48.3 22.1 59.2 2.3-64.7-13.6-41.7-22.4 0.3-37.4 44.6 30.1 48.2 7.1-55-18.1-23.9-24.8-10.5-7.9 13.4-55.9 54.3-17.3 23.3 30.8 13.9 44.4-1.9-40.9-23.5-38.6 49.6 6.1 13.3 32-5.4 66 13.8-34.3-1.5-39.4-9.1-22.3 49.2 27.6-7.3 60.9-9.2 34.4 20.5-57.2 1.9-39.3 36.4 40.7-8.3 42.4-23.8 39.7 14.4-1.6 20.6-35.4 7.6-30 25.9 66.9-3.5 44-39.5 37.8-53.7-41.1zm58.3-571.4l18.9 18.8-11.1 45-37.6 25.7 4.4-29.2-8.6-26.9 2.6 25.7-5 35.3-37.7 9.6 15.2-26.4 4.4-33.7-11.2 36.2-15 22.7-21.4-2.2 19.6-23.8 6.7-27.2-13.3 30.4-15.5 12.4-5 5.5-31.2-10.6-7-31.9 18.8-11.7 26.1-5.6-23.5-1.1-23.3 11.4 6.1-28 19-5.9 37.5 6.6-18.9-9.7-22.6-1.3-13.2 4.1 18.3-26.7 34.4 7.4 19.2 7.1-31.6-14.7-22.3-3.2 25.2-18.7 23.7 7.1 21.5 15.7-0.2-8.4-19.1-13.6-16.8-6 39.7-11.2 24.9 4.4 19.5 24.5-26.3 28.5z"/></svg>