<svg version="1.2" xmlns="http://www.w3.org/2000/svg" viewBox="0 0 1519 702" width="1519" height="702"><defs><filter x="-50%" y="-50%" width="200%" height="200%" id="f1" ><feDropShadow dx="-12.99038105676658" dy="7.499999999999999" stdDeviation="2.5" flood-color="#000000" flood-opacity=".5"/></filter><filter x="-50%" y="-50%" width="200%" height="200%" id="f2" ><feDropShadow dx="-33.77499074759311" dy="19.499999999999996" stdDeviation="7.083333333333334" flood-color="#000000" flood-opacity=".6"/></filter></defs><style>.a{filter:url(#f1);fill:#006606;stroke:#fff;stroke-linecap:round;stroke-linejoin:round;stroke-width:2}.b{filter:url(#f2);fill:#006606;stroke:#fff;stroke-linecap:round;stroke-linejoin:round;stroke-width:2}</style><path class="a" d="m-40.5 366.5l-25.1-20.5 7.7-55.8 42.4-35.7-1.7 35.9 13.7 31.4-6.2-30.8 1.6-43.3 44.4-16.3-15.1 33.9-1.2 41.3 9-45.3 15.4-29.2h26.1l-20.7 31.2-4.7 33.8 12.3-38.6 17.2-16.8 5.4-7.3 39.1 8.9 12.4 37.8-21.3 16.4-30.9 10 28.5-1.6 26.8-16.6-3.9 34.6-22.2 9.5-46.2-3.3 24.1 9.4 27.5-1.3 15.5-6.5-18.9 34.5-42.6-4.7-24.1-6.2 40.1 14 27.4 1-28.2 25.7-29.6-5.6-27.8-16.3 1.2 10.1 24.8 14.1 21 5.1-46.5 18.6-30.8-2.2-26.6-27.4 28.3-37.7zm5.4 84.6l-16.4-30 9.6-25.8 54-14.7 73.3 21.5-28.4 15-17.2 19.2 26.1-4.9 33.1-9.7 18.8 5.7 11.4 17.3-13.9-0.7-28.6 22.6 30.9-7.3 19.5 6.2 20.8 57.6-66.9 35.8-19.3-10.4-27.9-41.2 11.3 48.4 19.4 18-28.4 5.4-24.9-15.3-9.8-35.8-7.9-28.9-4 16.2 3 38.4 4.4 12.9-37.9-15-34.3-29.7-11.8-24.3 11.6-40.9z"/><path class="b" d="m-19.1 161.9l-13.8-31.2 11.7-24.9 55-10.2 71.2 27.4-29.5 12.7-18.7 17.7 26.5-2.8 33.7-6.9 18.3 7.2 9.9 18.3-13.8-1.9-30.4 20.2 31.4-4.7 18.9 7.7 16 59.2-69.6 30.1-18.4-11.9-24.3-43.5 7.2 49.3 17.8 19.4-28.8 3.1-23.5-17.3-6.8-36.5-5.5-29.4-5.3 15.8-0.1 38.5 3.3 13.2-36.6-18.1-31.7-32.4-9.7-25.2 14.9-39.8zm34.9 475.5l-32.9-9.1-11.8-24.8 27-49.1 66.4-37.6-9 30.8 1.8 25.7 14.7-22.2 16.1-30.4 17.1-9.6 20.4 3.9-10.2 9.5-3.7 36.3 16.3-27.3 18-9.7 55.9 25.2-20.9 72.9-20.9 6.7-49-8.7 42.7 25.6 26.3-1.4-15.8 24.2-28.4 7.1-32.5-17.8-26.2-14.5 8.8 14.2 29.7 24.5 12.3 5.8-37.1 16.8-45.3 4-25.6-8.4-21.3-36.9zm-68.4-217l-15.5-26.3 24.9-46.7 49-17.7-13.2 31.1 1.9 32.1 4.5-29.1 15.5-37.7h44.4l-24.3 25-14.4 36 22.6-37 23.1-20.8 23 8.5-28.4 20.8-15.1 28.3 23.4-30 20.5-9.3 7.2-4.7 31.6 20.5-1.3 37.3-24.1 7.7-30.5-1.2 25.7 7.8 29-6-14.7 29.3-22.7 1.2-39.6-17.9 18.2 16.1 24.6 7.7 15.8-0.7-27.8 24.3-36.1-17.9-19.2-13.3 30.8 25.3 23.9 9.8-33.2 13.6-24.3-14.5-19.3-23.4-2.2 9.2 17.3 20.5 16.9 11.3-47.1 1.3-26.4-11.9-14.6-32.7 37.2-24.1z"/></svg>