<svg version="1.2" xmlns="http://www.w3.org/2000/svg" viewBox="0 0 1519 702" width="1519" height="702"><defs><filter x="-50%" y="-50%" width="200%" height="200%" id="f1" ><feDropShadow dx="-12.99038105676658" dy="7.499999999999999" stdDeviation="2.5" flood-color="#000000" flood-opacity=".5"/></filter><filter x="-50%" y="-50%" width="200%" height="200%" id="f2" ><feDropShadow dx="-33.77499074759311" dy="19.499999999999996" stdDeviation="7.083333333333334" flood-color="#000000" flood-opacity=".6"/></filter></defs><style>.a{filter:url(#f1);fill:#006606;stroke:#fff;stroke-linecap:round;stroke-linejoin:round;stroke-width:2}.b{filter:url(#f2);fill:#006606;stroke:#fff;stroke-linecap:round;stroke-linejoin:round;stroke-width:2}</style><path class="a" d="m144.2 725.8l-28-3.5-20-44.8 14.9-45.8 15.2 27.2 24.6 16.9-18.8-19.8-18.7-32.8 25.2-32.4 4.5 31.9 18.1 31.1-14.1-37.6-2.2-28.7 19.3-12-0.9 32.6 12.1 27.1-8.7-34.1 4.9-20.3 0.7-7.9 32.9-11.5 26.6 22.2-8.2 21.9-18.2 21.7 20.3-14.4 12.2-24.6 13 27.4-12 17.2-35.6 18.8 22.1-4.1 19.6-13.6 8.5-12 1.9 34.2-33.5 16.1-20.6 6.5 35.9-8.1 20.7-11.9-8.9 32-24.4 9.5-28.1 0.8 5.5 6.8 24.9-0.9 17.8-6-25.8 35.1-23.7 12.6-32.2-7.9 3.5-40.9zm1170.7 8.6l-13.5 31.4-26.3 8.3-44.8-33.4-28.2-71 29.3 13.1 25.7 1.7-20-17.6-27.9-20-7.1-18.4 6.6-19.6 8 11.4 35.4 8.6-24.7-19.9-7.2-19.1 32.6-51.9 69.4 30.7 3.7 21.6-15.3 47.4 31.2-38.8 2.2-26.3 21.8 19 3.2 29.1-22.1 29.7-17.9 24 15.2-6.8 28.4-26 7.4-11.4 11.5 39.1-2.2 45.3-11.9 24.3-39.4 16zm-755.2 0.6l-37.3-11.4-16.7-65.7 31.1-59 14.3 40.8 29.6 28.7-21-31.4-17.8-49 42.1-38.3-1.5 44.5 17.4 46.6-10.4-54.5 3.8-39.6 29.1-11.8-8.9 44.2 10.1 39.7-3.8-48.5 11.5-26.5 2.7-10.6 47.6-7.8 31 36.4-16.3 28-29.9 25.2 31.1-14.7 22.3-30.7 11.3 40.3-20.4 20.7-52.9 17.2 31-0.4 30-13.9 14.4-14.4-5.5 47.1-49.5 14.1-29.6 4 50.9-2.6 31-11.3-19.7 41.4-35.5 7.2-38.4-5.5 5.9 10.6 34.1 4.5 25.7-3.8-43.5 41.7-35.2 11.5-42-18.3 14.4-54.9zm-179.3 10.1l-30.8 14.6-25.2-11-11.7-54.7 25.6-72 13.4 29.2 18.2 18.3-3.5-26.4-7.7-33.5 6.7-18.5 17.9-10.4-1.5 13.8 21 29.9-5.5-31.3 7.2-19.1 58.7-17.5 31.9 68.8-11.4 18.7-42.7 25.4 49-8.5 19-18.3 3.8 28.7-16.7 23.9-36.2 7.8-29.3 6.2 15.9 5 38.5-0.9 13.1-3.7-17.1 37-31.6 32.6-24.9 10.4-40.2-13.9zm466.5 3.4l-13.5 31.4-26.2 8.3-44.9-33.4-28.2-71 29.3 13.1 25.8 1.7-20-17.6-27.9-20-7.2-18.4 6.7-19.6 7.9 11.4 35.5 8.6-24.8-19.9-7.1-19.1 32.6-51.9 69.3 30.7 3.8 21.6-15.4 47.4 31.2-38.8 2.3-26.3 21.8 19 3.2 29.1-22.2 29.7-17.9 24 15.3-6.8 28.3-26 7.5-11.4 11.5 39.1-2.3 45.3-11.8 24.2-39.4 16.1zm197.3 16.4l-34.4 8.7-43.9-43.3-3.6-60.5 30.3 25 36.5 8.4-31-14.6-37-29.7 14.7-49.6 19.9 35.3 35.4 28.1-33.8-37.5-15.6-32.6 17.1-22.9 13.9 38.6 26.5 26.1-25.8-36-3.5-26-2.9-9.5 33.4-28.5 41.2 13.8 0.6 29.4-11.5 33.7 17.3-26.1 2.9-34.4 27.8 26.1-6.2 25.7-33.1 38.3 24-14.9 16.8-25 4.4-17.9 18 39.2-32 34.2-21.1 17.1 38.4-26 18.8-23.4 4.2 41.5-24.3 22.4-32.5 13.8 9.6 5.5 28.7-12.6 18.1-15.1-14.1 53-22 25.5-41.3 5.5-14.7-49.5z"/><path class="b" d="m1249.1 757.5l-2.7 34-22.1 16.3-53.3-17.1-49.5-58.1 31.9 2.9 24.9-6.6-24.6-10.2-32.9-10-12.6-15.1-0.1-20.7 11.2 8.2 36.4-3.3-29.9-10.8-12.9-15.8 14.1-59.6 75.6 6.7 10.5 19.2 0.7 49.8 17.1-46.8-6.4-25.6 26.7 11 12.4 26.4-11.3 35.3-9.2 28.5 12.2-11.3 18.5-33.8 3.3-13.2 23.6 33.3 12.4 43.6-3.4 26.8-32.1 27.9zm-695.2-5.7l-13.6 31.4-26.2 8.3-44.9-33.4-28.1-71 29.3 13.1 25.7 1.8-20-17.6-27.9-20.1-7.2-18.3 6.7-19.7 7.9 11.4 35.5 8.6-24.8-19.8-7.1-19.2 32.6-51.9 69.4 30.7 3.7 21.6-15.4 47.4 31.3-38.8 2.2-26.3 21.8 19 3.2 29.1-22.2 29.7-17.9 24 15.3-6.7 28.3-26.1 7.5-11.4 11.5 39.1-2.3 45.4-11.8 24.2-39.4 16zm151.8 28.8l-21.8 16.4-21.5-4.5-18-41.1 8.4-60.5 15.3 20.7 17.2 11.4-7-20.2-11.5-25 2.3-15.6 12.4-11 1.1 11 21.2 20.1-9.4-23.7 2.7-16.1 43.2-23.2 36.1 48.8-5.9 16.5-29.5 26.9 37.1-14.6 12-17.5 7.6 21.9-9.2 21.5-27.2 11.9-22 9.7 13.3 1.3 30.1-6.9 9.7-5-7.5 31.8-19.5 30.6-17.9 12.2-33.7-4.4zm-443.4-18.3l-31-9.5-13.8-54.6 25.8-49.1 11.9 33.9 24.6 23.9-17.4-26.1-14.9-40.8 35-31.8-1.2 37.1 14.5 38.7-8.7-45.3 3.2-32.9 24.2-9.9-7.4 36.8 8.4 33-3.2-40.3 9.5-22.1 2.3-8.8 39.6-6.5 25.7 30.3-13.5 23.3-24.9 20.9 25.9-12.2 18.5-25.5 9.4 33.5-17 17.2-44 14.3 25.9-0.3 24.9-11.6 11.9-11.9-4.5 39.1-41.2 11.7-24.6 3.3 42.4-2.2 25.8-9.3-16.4 34.4-29.5 6-32-4.6 4.9 8.9 28.3 3.7 21.4-3.2-36.1 34.7-29.3 9.6-34.9-15.3 12-45.6zm633.1 84.2l-50.1-3-40.5-77.2 21.1-83 30.2 46.7 45.5 27-35.5-32.9-37-56 41.1-60.4 11.5 56.1 35.7 53-29.4-65-7-50.6 32.8-23.5 2.1 57.9 24.5 46.6-19.2-59.5 6.4-36.6 0.2-14.1 57.1-24 49.7 36.3-11.9 39.8-29.9 40.5 34.4-27.8 18.7-45 26.3 47-19.4 32-61 37.4 38.7-9.8 33.4-26.4 13.6-22.2 7.3 60.4-57.7 32.4-35.8 14 62.9-18.6 35.4-23.4-12.2 57.7-42.3 19.7-49.7 4.6 10.6 11.5 43.9-4.6 31-12.5-41.8 65.2-40.5 24.9-58.1-10.3 1.6-72.9z"/></svg>