<svg version="1.2" xmlns="http://www.w3.org/2000/svg" viewBox="0 0 2098 825" width="2098" height="825"><style>.a{stroke:#000;stroke-miterlimit:100;stroke-width:10}.b{fill:none;stroke:#a52a02;stroke-linecap:round;stroke-width:23}.c{stroke:#000;stroke-linejoin:bevel;stroke-width:5}.d{fill:#292929;stroke:#000;stroke-linecap:round;stroke-linejoin:bevel;stroke-width:5}.e{fill:#0273a5;stroke:#000;stroke-miterlimit:100;stroke-width:5}.f{fill:#a52a02;stroke:#000;stroke-linecap:round;stroke-linejoin:round;stroke-width:5}.g{fill:#0273a5;stroke:#000;stroke-linejoin:bevel;stroke-width:5}.h{fill:#1e3050;stroke:#000;stroke-linejoin:bevel;stroke-width:5}.i{fill:#292929;stroke:#000;stroke-linejoin:bevel;stroke-width:5}.j{fill:#0273a5;stroke:#000;stroke-miterlimit:100;stroke-width:2}.k{fill:#a52a02;stroke:#000;stroke-miterlimit:100;stroke-width:2}.l{fill:#292929;stroke:#000;stroke-miterlimit:100;stroke-width:5}.m{stroke:#000;stroke-linecap:round;stroke-linejoin:round;stroke-width:5}</style><path class="a" d="m971.4 277l-2.3 4h4.6zm0 270l2.3-4h-4.6zm-0.4-266.4h0.8v262.8h-0.8z"/><path class="a" d="m1106 413.7l-4-2.3v4.6zm-270 0l4 2.3v-4.6zm3.6-0.4h262.8v0.8h-262.8z"/><path fill-rule="evenodd" class="b" d="m1068.5 299.4c0 0-31.5 68.7-60.4 71.6-25.3 2.5-30.4-24.9-69.2-24.9-31.4 0-51.9 31.4-51.7 66 0.2 34.4 22.2 69.4 51.7 69.4 23.5 0 44.1-28.5 69.2-25.7 37 4 60.4 73.5 60.4 73.5"/><path class="c" d="m1459.9 207.5l18 32.6-36.6-6.5z"/><path class="d" d="m491 248.7v-5c0 0 3.7-2.6 10.8-7.4 7-4.8 17.3-11.7 30.4-20.3 6.6-4.2 13.8-8.8 21.7-13.7 7.9-4.8 16.5-10 25.6-15.3 9.2-5.3 18.9-10.7 29.2-16.3 10.3-5.5 21.1-11.1 32.3-16.7 11.3-5.5 23-11 35.2-16.6 12.2-5.3 24.7-10.5 37.7-15.7q9.7-3.8 19.7-7.5 9.9-3.6 20.1-7.1 10.2-3.3 20.6-6.6 10.5-3.1 21.1-6.1 10.6-2.9 21.4-5.7 10.7-2.6 21.7-5 10.9-2.3 21.9-4.4 11.1-2.1 22.3-3.8 11.1-1.7 22.4-3.2 11.2-1.3 22.5-2.4 11.3-0.9 22.7-1.7 11.3-0.6 22.7-1 11.4-0.2 22.7-0.2 11.4 0.1 22.7 0.5 11.3 0.5 22.6 1.2 11.3 0.8 22.5 1.9 11.2 1.2 22.4 2.7 11.1 1.5 22.1 3.3 11 1.8 21.8 3.9 10.9 2.2 21.6 4.6 10.7 2.4 21.2 5.1 10.5 2.8 20.8 5.7 10.4 3 20.4 6.1 10.1 3.3 19.9 6.6c13.1 4.6 25.9 9.4 38.2 14.2 12.4 5 24.3 10.1 35.7 15.2 11.5 5.2 22.5 10.5 32.9 15.6 10.5 5.3 20.4 10.4 29.7 15.4 9.3 5.1 18.1 10 26.1 14.6 8.1 4.7 15.5 9.1 22.2 13.2 13.4 8.3 24 15 31.1 19.6 7.2 4.8 11.1 7.3 11.1 7.3v5.3c0 0-3.8-2.5-11-7.2-7.2-4.6-17.7-11.3-31.1-19.5-6.7-4-14.1-8.4-22.2-13.1-8-4.5-16.7-9.4-26.1-14.5-9.3-4.9-19.2-10.1-29.6-15.3-10.5-5.2-21.4-10.4-32.9-15.6-11.4-5.1-23.3-10.2-35.7-15.3-12.3-4.8-25.1-9.6-38.2-14.3q-9.8-3.4-19.9-6.7-10-3.2-20.3-6.2-10.3-3-20.9-5.8-10.5-2.7-21.2-5.3-10.7-2.4-21.5-4.7-10.9-2.1-21.9-4.1-11-1.8-22.1-3.4-11.1-1.5-22.3-2.8-11.2-1.2-22.5-2.1-11.3-0.8-22.6-1.4-11.4-0.4-22.7-0.6-11.4-0.1-22.8 0.1-11.3 0.3-22.7 0.8-11.3 0.7-22.6 1.6-11.4 1-22.6 2.2-11.3 1.4-22.4 3-11.2 1.7-22.2 3.7-11.1 2.1-22 4.3-11 2.4-21.8 5-10.7 2.7-21.4 5.6-10.6 2.9-21 6.1-10.4 3.2-20.6 6.6-10.2 3.5-20.2 7.1-10 3.7-19.7 7.4c-12.9 5.2-25.5 10.6-37.7 15.9-12.1 5.6-23.9 11.1-35.2 16.7-11.3 5.7-22.1 11.4-32.3 16.9-10.3 5.7-20 11.3-29.2 16.6-9.1 5.5-17.7 10.7-25.6 15.6-7.9 5-15.2 9.7-21.8 14-13.1 8.8-23.4 15.9-30.4 20.8-7.1 5-10.8 7.6-10.8 7.6z"/><path class="e" d="m912.1 84c-7.8 0-14.1 6.3-14.1 14.1 0 4.5 2.1 8.6 5.6 11.3l64 48c3.4 2.5 8 2.5 11.3 0l64-48c3.6-2.7 5.7-6.8 5.7-11.3 0-7.8-6.4-14.1-14.2-14.1zm-14.1 32.9v61.2c0 10.4 8.5 18.8 18.8 18.8h113c10.4 0 18.8-8.4 18.8-18.8v-61.2l-64 48c-6.7 5.1-15.9 5.1-22.6 0zm14.1-32.9c-7.8 0-14.1 6.3-14.1 14.1 0 4.4 2.1 8.6 5.7 11.3l64 48c3.3 2.5 7.9 2.5 11.2 0l64-48c3.6-2.7 5.7-6.9 5.7-11.3 0-7.8-6.3-14.1-14.1-14.1zm-14.2 32.9v61.2c0 10.4 8.5 18.8 18.9 18.8h112.9c10.4 0 18.8-8.4 18.8-18.8v-61.2l-64 48c-6.7 5-15.9 5-22.6 0z"/><path fill-rule="evenodd" class="f" d="m959.7 142.4v-4.6c0-7.6 6.2-13.8 13.8-13.8 7.6 0 13.8 6.2 13.8 13.8v4.6h1.5c3.4 0 6.2 2.8 6.2 6.2v18.4c0 3.4-2.8 6.1-6.2 6.1h-30.7c-3.3 0-6.1-2.7-6.1-6.1v-18.4c0-3.4 2.8-6.2 6.1-6.2zm6.2-4.6v4.6h15.3v-4.6c0-4.2-3.4-7.7-7.6-7.7-4.3 0-7.7 3.5-7.7 7.7z"/><path class="c" d="m518.1 624.2l-18.1-32.5 36.6 6.5z"/><path class="d" d="m1486.9 583v5c0 0-3.7 2.6-10.7 7.5-7.1 4.8-17.4 11.7-30.5 20.3-6.5 4.2-13.8 8.8-21.7 13.7-7.9 4.8-16.5 9.9-25.6 15.3-9.2 5.2-18.9 10.7-29.2 16.3-10.2 5.4-21 11-32.3 16.7-11.3 5.5-23 11-35.2 16.5-12.1 5.3-24.7 10.6-37.7 15.8q-9.7 3.7-19.6 7.4-10 3.6-20.2 7.1-10.2 3.4-20.6 6.6-10.4 3.2-21 6.2-10.6 2.9-21.4 5.6-10.8 2.6-21.7 5.1-11 2.3-22 4.4-11.1 2-22.2 3.8-11.2 1.7-22.4 3.1-11.3 1.3-22.6 2.4-11.3 1-22.7 1.7-11.3 0.6-22.7 1-11.3 0.2-22.7 0.2-11.3-0.1-22.7-0.4-11.3-0.5-22.6-1.3-11.3-0.8-22.5-1.9-11.2-1.2-22.3-2.6-11.1-1.5-22.1-3.3-11-1.9-21.9-4-10.9-2.1-21.6-4.5-10.7-2.5-21.2-5.2-10.5-2.7-20.8-5.6-10.3-3-20.4-6.2-10.1-3.2-19.9-6.5c-13.1-4.7-25.9-9.4-38.2-14.3-12.3-5-24.3-10.1-35.7-15.1-11.5-5.3-22.5-10.5-32.9-15.6-10.5-5.3-20.4-10.5-29.7-15.4-9.3-5.1-18-10-26.1-14.6-8.1-4.8-15.5-9.2-22.2-13.2-13.4-8.3-23.9-15-31.1-19.7-7.2-4.7-11-7.3-11-7.3l-0.1-5.3c0 0 3.9 2.6 11.1 7.2 7.1 4.7 17.6 11.3 31 19.5 6.7 4 14.1 8.4 22.2 13.1 8.1 4.6 16.8 9.4 26.1 14.5 9.3 5 19.2 10.1 29.7 15.4 10.4 5.1 21.4 10.3 32.8 15.6 11.5 5.1 23.4 10.2 35.7 15.2 12.3 4.9 25.1 9.7 38.2 14.4q9.8 3.3 19.9 6.6 10.1 3.2 20.4 6.3 10.3 2.9 20.8 5.8 10.5 2.7 21.2 5.2 10.7 2.5 21.6 4.7 10.8 2.2 21.8 4.1 11 1.8 22.1 3.5 11.2 1.5 22.4 2.7 11.2 1.2 22.5 2.1 11.2 0.8 22.6 1.4 11.3 0.5 22.7 0.7 11.3 0 22.7-0.1 11.4-0.3 22.7-0.8 11.4-0.7 22.7-1.6 11.3-1 22.5-2.3 11.3-1.4 22.5-3 11.1-1.7 22.2-3.7 11-2 22-4.3 10.9-2.4 21.7-5 10.8-2.7 21.4-5.5 10.6-3 21-6.1 10.4-3.3 20.7-6.6 10.2-3.5 20.1-7.1 10-3.7 19.7-7.5c13-5.2 25.5-10.5 37.7-15.9 12.2-5.5 23.9-11.1 35.2-16.6 11.3-5.8 22.1-11.4 32.4-17 10.2-5.7 20-11.2 29.1-16.6 9.2-5.4 17.7-10.6 25.7-15.6 7.9-5 15.1-9.7 21.7-14 13.1-8.7 23.4-15.8 30.5-20.7 7-5 10.7-7.7 10.7-7.7z"/><path class="e" d="m921.1 600c-7.8 0-14.1 6.3-14.1 14.1 0 4.5 2.1 8.6 5.6 11.3l64 48c3.4 2.5 8 2.5 11.3 0l64-48c3.6-2.7 5.7-6.8 5.7-11.3 0-7.8-6.4-14.1-14.2-14.1zm-14.1 32.9v61.2c0 10.4 8.5 18.8 18.9 18.8h112.9c10.4 0 18.8-8.4 18.8-18.8v-61.2l-64 48c-6.7 5.1-15.9 5.1-22.6 0zm14.1-32.9c-7.8 0-14.1 6.3-14.1 14.1 0 4.4 2.1 8.6 5.7 11.3l64 48c3.3 2.5 7.9 2.5 11.2 0l64-48c3.6-2.7 5.7-6.9 5.7-11.3 0-7.8-6.3-14.1-14.1-14.1zm-14.2 32.9v61.2c0 10.4 8.5 18.8 18.9 18.8h112.9c10.4 0 18.8-8.4 18.8-18.8v-61.2l-64 48c-6.7 5-15.9 5-22.6 0z"/><path fill-rule="evenodd" class="f" d="m968.7 658.4v-4.6c0-7.6 6.2-13.8 13.8-13.8 7.6 0 13.8 6.2 13.8 13.8v4.6h1.5c3.4 0 6.2 2.8 6.2 6.2v18.4c0 3.4-2.8 6.1-6.2 6.1h-30.7c-3.3 0-6.1-2.7-6.1-6.1v-18.4c0-3.4 2.8-6.2 6.1-6.2zm6.2-4.6v4.6h15.3v-4.6c0-4.2-3.4-7.7-7.6-7.7-4.3 0-7.7 3.5-7.7 7.7z"/><path fill-rule="evenodd" class="g" d="m0 307.8l28.2 1.3 15-30.7 25.7-3.8 24.5 18.3 92.7 25.8 102.8 73.1-29.9 84.5-127.9 8.6-131.1 78.6z"/><path class="c" d="m73.7 467.5l43.4 31.3-43.4 31.3zm67.9 0.5l-43.4 31.3 43.4 31.3zm-33.7 45c-7.5 0-13.5-6-13.5-13.5 0-7.4 6-13.4 13.5-13.4 7.4 0 13.4 6 13.4 13.4 0 7.5-6 13.5-13.4 13.5z"/><path class="c" d="m67.2 315.8v-20.2h27.5v-50.6h23.8l0.1 70.9zm101.9 0v-20.3h-27.5v-50.5h-23.8l-0.1 70.8z"/><path fill-rule="evenodd" class="h" d="m572.3 300.9c18.2 0 33 14.8 33 32.9v148.1c0 18.2-14.8 32.9-33 32.9h-90.5l5.5 16.5h35.7c9.1 0 16.4 7.3 16.4 16.4 0 9.2-7.3 16.5-16.4 16.5h-131.7c-9.1 0-16.4-7.3-16.4-16.5 0-9.1 7.3-16.4 16.4-16.4h35.7l5.5-16.5h-90.6c-18.1 0-32.9-14.7-32.9-32.9v-148.1c0-18.1 14.8-32.9 32.9-32.9zm-230.4 148.1h230.4v-115.2h-230.4z"/><path fill-rule="evenodd" class="f" d="m460.6 409.5l-6.5 6.4c-0.8 0.9-2 1.3-3.2 1.3h-7.8v7.8c0 2.6-2 4.6-4.6 4.6h-7.8v7.8c0 2.5-2 4.6-4.6 4.6h-15.5c-2.5 0-4.6-2.1-4.6-4.6v-15.5c0-1.2 0.5-2.4 1.4-3.3l31.1-31.2c-1-3.3-1.6-6.8-1.6-10.4 0-18.8 15.3-34 34.1-34 18.8 0 34 15.2 34 34 0 18.8-15.2 34.1-34 34.1-3.6 0-7.1-0.6-10.4-1.6zm12.6-45.7c-1.4 1.5-2.2 3.4-2.2 5.5 0 2 0.8 4 2.2 5.5 1.5 1.4 3.5 2.2 5.5 2.2 2.1 0 4-0.8 5.5-2.2 1.4-1.5 2.2-3.5 2.2-5.5 0-2.1-0.8-4-2.2-5.5-1.5-1.4-3.4-2.2-5.5-2.2-2 0-4 0.8-5.5 2.2z"/><path fill-rule="evenodd" class="i" d="m1359.1 293h193.6c32 0 58 26 58 58.1 0 32-26 58.1-58 58.1h-193.6c-32.1 0-58.1-26.1-58.1-58.1 0-32.1 26-58.1 58.1-58.1zm139.7 47.8c-2.7 2.7-4.2 6.4-4.2 10.3 0 3.8 1.5 7.5 4.2 10.2 2.8 2.8 6.5 4.3 10.3 4.3 3.9 0 7.5-1.5 10.3-4.3 2.7-2.7 4.2-6.4 4.2-10.2 0-3.9-1.5-7.6-4.2-10.3-2.8-2.7-6.4-4.2-10.3-4.2-3.8 0-7.5 1.5-10.3 4.2zm43.6 20.5c2.7 2.8 6.4 4.3 10.3 4.3 3.8 0 7.5-1.5 10.2-4.3 2.7-2.7 4.3-6.4 4.3-10.2 0-3.9-1.6-7.6-4.3-10.3-2.7-2.7-6.4-4.2-10.2-4.2-3.9 0-7.6 1.5-10.3 4.2-2.7 2.7-4.3 6.4-4.3 10.3 0 3.8 1.6 7.5 4.3 10.2zm-183.3 86.6h193.6c32 0 58 26 58 58 0 32.1-26 58.1-58 58.1h-193.6c-32.1 0-58.1-26-58.1-58.1 0-32 26-58 58.1-58zm139.7 47.8c-2.7 2.7-4.2 6.4-4.2 10.2 0 3.9 1.5 7.6 4.2 10.3 2.8 2.7 6.5 4.3 10.3 4.3 3.9 0 7.5-1.6 10.3-4.3 2.7-2.7 4.2-6.4 4.2-10.3 0-3.8-1.5-7.5-4.2-10.2-2.8-2.7-6.4-4.3-10.3-4.3-3.8 0-7.5 1.6-10.3 4.3zm48.4 20.5c2.8 2.7 6.4 4.3 10.3 4.3 3.8 0 7.5-1.6 10.3-4.3 2.7-2.7 4.2-6.4 4.2-10.3 0-3.8-1.5-7.5-4.2-10.2-2.8-2.7-6.5-4.3-10.3-4.3-3.9 0-7.5 1.6-10.3 4.3-2.7 2.7-4.2 6.4-4.2 10.2 0 3.9 1.5 7.6 4.2 10.3z"/><path class="j" d="m1691.1 340c-4.5 0-8.1 3.6-8.1 8.1 0 2.5 1.2 4.9 3.2 6.5l36.8 27.5c1.9 1.5 4.5 1.5 6.4 0l36.8-27.5c2-1.6 3.2-4 3.2-6.5 0-4.5-3.6-8.1-8.1-8.1zm-8.1 18.9v35.1c0 6 4.8 10.8 10.8 10.8h64.8c6 0 10.8-4.8 10.8-10.8v-35.1l-36.7 27.5c-3.9 2.9-9.1 2.9-13 0zm8.1-18.9c-4.5 0-8.1 3.7-8.1 8.1 0 2.6 1.2 5 3.3 6.5l36.7 27.6c1.9 1.4 4.5 1.4 6.5 0l36.7-27.6c2-1.5 3.2-3.9 3.2-6.5 0-4.4-3.6-8.1-8.1-8.1zm-8.1 18.9v35.1c0 6 4.9 10.8 10.8 10.8h64.8c6 0 10.8-4.8 10.8-10.8v-35.1l-36.7 27.6c-3.8 2.9-9.1 2.9-13 0z"/><path fill-rule="evenodd" class="k" d="m1718.4 373.5v-2.6c0-4.4 3.5-7.9 7.9-7.9 4.4 0 8 3.5 8 7.9v2.6h0.8c2 0 3.6 1.6 3.6 3.6v10.5c0 2-1.6 3.5-3.6 3.5h-17.6c-1.9 0-3.5-1.5-3.5-3.5v-10.5c0-2 1.6-3.6 3.5-3.6zm3.5-2.6v2.6h8.8v-2.6c0-2.4-1.9-4.4-4.4-4.4-2.4 0-4.4 2-4.4 4.4z"/><path class="l" d="m2098 341.3v24.8c0 22.7-51.7 41.2-115.5 41.2-63.7 0-115.4-18.5-115.4-41.2v-24.8c0-22.8 51.7-41.2 115.4-41.2 63.8 0 115.5 18.4 115.5 41.2zm-28.2 69.4c10.7-3.8 20.5-8.7 28.2-14.7v52.5c0 22.8-51.7 41.3-115.5 41.3-63.7 0-115.4-18.5-115.4-41.3v-52.5c7.6 6.1 17.5 10.9 28.2 14.7 23.2 8.3 54 13.1 87.2 13.1 33.3 0 64.1-4.8 87.3-13.1zm-202.7 67.8c7.6 6.1 17.5 10.9 28.2 14.7 23.2 8.3 54 13.1 87.2 13.1 33.3 0 64.1-4.8 87.3-13.1 10.7-3.8 20.5-8.7 28.2-14.7v44.3c0 22.7-51.7 41.2-115.5 41.2-63.7 0-115.4-18.5-115.4-41.2z"/><path class="m" d="m1656 443.6l-0.1 12.5-29.9-15.1 30.1-14.8-0.1 12.5 140 0.7 0.1-12.5 29.9 15.1-30.1 14.8 0.1-12.5z"/></svg>