<svg version="1.2" xmlns="http://www.w3.org/2000/svg" viewBox="0 0 1519 702" width="1519" height="702"><defs><filter x="-50%" y="-50%" width="200%" height="200%" id="f1" ><feDropShadow dx="-23.382685902179844" dy="13.499999999999998" stdDeviation="5.416666666666667" flood-color="#000000" flood-opacity=".3"/></filter><filter x="-50%" y="-50%" width="200%" height="200%" id="f2" ><feDropShadow dx="-23.382685902179844" dy="13.499999999999998" stdDeviation="5.416666666666667" flood-color="#000000" flood-opacity=".3"/></filter><filter x="-50%" y="-50%" width="200%" height="200%" id="f3" ><feDropShadow dx="-23.382685902179844" dy="13.499999999999998" stdDeviation="5.416666666666667" flood-color="#000000" flood-opacity=".3"/></filter><filter x="-50%" y="-50%" width="200%" height="200%" id="f4" ><feDropShadow dx="-23.382685902179844" dy="13.499999999999998" stdDeviation="5.416666666666667" flood-color="#000000" flood-opacity=".3"/></filter></defs><style>.a{filter:url(#f1);fill:#dec400;stroke:#fff;stroke-linecap:round;stroke-linejoin:round;stroke-width:5}.b{filter:url(#f2);fill:#bebebe;stroke:#fff;stroke-linecap:round;stroke-linejoin:round;stroke-width:5}.c{filter:url(#f3);fill:#0068ff;stroke:#fff;stroke-linecap:round;stroke-linejoin:round;stroke-width:5}.d{filter:url(#f4);fill:#65ff93;stroke:#fff;stroke-linecap:round;stroke-linejoin:round;stroke-width:5}</style><path class="a" d="m1483 725.7l16.6 9.7 30.5-48.4h8.3l4.2-4.2h8.3l13.8-26.3-6.9-7-1.4-6.9-51.2-24.9-62.4-54-2.8-7-6.9 2.8-15.2 36-9.7 1.4-5.6 9.7 4.2 13.9-16.6 40.1 2.7 4.2h5.6l2.8-4.2 81.7 5.6 16.6 9.7v4.1l-4.1 1.4-5.6 6.9 4.2 5.6zm-135.9-59.3l34.7-44.6-49.7 26.6zm-21.5-35.4l52-22.2-56.4-0.9zm-5.3-41.2l55.9 8.2-47.7-30.2zm14.6-42l43.4 36.3-24.8-50.7zm37-21.7l25.7 50.4-3-56.4z"/><path class="b" d="m1552.3 511l18.9 3.8 13.1-55.8 7.8-2.7 2.6-5.2 7.9-2.7 4.5-29.4-8.7-4.3-3.6-6.1-56.6-7-76.5-30.9-4.8-5.6-5.7 4.8-2.7 39-8.8 4.5-2.1 11 8.5 11.7-2.7 43.4 3.9 3.1 5.3-1.8 1.3-4.9 79.1-21.2 18.8 3.7 1.4 4-3.5 2.6-3 8.4 5.7 3.9zm-147.7-12l18.4-53.5-38.5 41.3zm-31.8-26.5l42.1-37.9-53.7 17.5zm-18.4-37.3l55.6-10.4-55-13.1zm0.3-44.4l52.8 20.2-40-39.9zm28-32.5l40.7 39.4-21.1-52.4z"/><path class="c" d="m1599.7 325.4l19.2 0.7 3.9-57.2 7.3-3.9 1.7-5.6 7.3-4-0.2-29.7-9.4-2.8-4.5-5.5-57 2.3-80.4-18.1-5.8-4.8-4.7 5.7 3.6 39-7.9 5.8-0.3 11.1 10.2 10.3 4.4 43.2 4.4 2.4 4.9-2.6 0.4-5 74.7-33.8 19.2 0.7 2 3.6-3 3.2-1.6 8.7 6.2 3zm-147.7 12.1l9.5-55.8-31.3 47zm-35.7-21l35.4-44.2-50.2 25.9zm-24.2-33.8l53.2-19.2-56.3-4zm-7-44l55.4 11.5-45.9-32.9zm22.4-36.7l46.5 32.3-29.3-48.3z"/><path class="d" d="m1544.2 54.5l15.9-10.9-30.8-48.3 3.5-7.5-1.9-5.5 3.5-7.5-17.9-23.8-9.2 3.3-6.8-1.7-44.5 35.7-75.5 33.3-7.4-0.5-0.5 7.4 26.1 29.2-2.9 9.4 6.4 9.1 14.3 2.2 29.2 32.2 4.9-0.7 2.4-5-2.6-4.3 40-71.6 15.8-10.8 3.8 1.7-0.5 4.4 3.9 8 6.8-1.4zm-111.7 97.5l-25.5-50.5 2.8 56.4zm-41.2 4.3l2.2-56.6-24.9 50.7zm-39.6-12.8l31.3-47.1-47.7 30.2zm-31.7-31.1l51.4-23.8-56.5 0.8zm-3.7-42.7l56.5-1.7-52.2-21.4z"/></svg>