<svg version="1.2" xmlns="http://www.w3.org/2000/svg" viewBox="0 0 1519 702" width="1519" height="702"><defs><filter x="-50%" y="-50%" width="200%" height="200%" id="f1" ><feDropShadow dx="-23.382685902179844" dy="13.499999999999998" stdDeviation="5.416666666666667" flood-color="#000000" flood-opacity=".4"/></filter><filter x="-50%" y="-50%" width="200%" height="200%" id="f2" ><feDropShadow dx="-23.382685902179844" dy="13.499999999999998" stdDeviation="5.416666666666667" flood-color="#000000" flood-opacity=".4"/></filter><filter x="-50%" y="-50%" width="200%" height="200%" id="f3" ><feDropShadow dx="-23.382685902179844" dy="13.499999999999998" stdDeviation="5.416666666666667" flood-color="#000000" flood-opacity=".4"/></filter><filter x="-50%" y="-50%" width="200%" height="200%" id="f4" ><feDropShadow dx="-23.382685902179844" dy="13.499999999999998" stdDeviation="5.416666666666667" flood-color="#000000" flood-opacity=".4"/></filter></defs><style>.a{filter:url(#f1);fill:#a52a02;stroke:#fff;stroke-linecap:round;stroke-linejoin:round;stroke-width:5}.b{filter:url(#f2);fill:#006606;stroke:#fff;stroke-linecap:round;stroke-linejoin:round;stroke-width:5}.c{filter:url(#f3);fill:#310066;stroke:#fff;stroke-linecap:round;stroke-linejoin:round;stroke-width:5}.d{filter:url(#f4);fill:#600;stroke:#fff;stroke-linecap:round;stroke-linejoin:round;stroke-width:5}</style><path class="a" d="m-11.3 703.9l-16.6 9.7-30.5-48.5h-8.3l-4.1-4.1h-8.3l-13.9-26.3 6.9-7 1.4-6.9 51.3-24.9 62.3-54.1 2.8-6.9 6.9 2.8 15.3 36 9.6 1.4 5.6 9.7-4.2 13.8 16.7 40.2-2.8 4.2h-5.6l-2.7-4.2-81.8 5.6-16.6 9.7v4.1l4.2 1.4 5.5 6.9-4.1 5.6zm135.8-59.3l-34.7-44.6 49.8 26.6zm21.4-35.4l-52-22.2 56.5-0.9zm5.3-41.2l-56 8.2 47.7-30.2zm-14.6-42l-43.4 36.3 24.9-50.7zm-37.1-21.7l-25.7 50.4 3-56.4z"/><path class="b" d="m-58.1 497.2l-18.9 3.8-13.1-55.8-7.9-2.7-2.6-5.2-7.8-2.7-4.6-29.4 8.8-4.3 3.6-6.1 56.5-7 76.5-30.9 4.9-5.7 5.6 4.9 2.8 39 8.7 4.5 2.1 11-8.4 11.7 2.7 43.4-4 3-5.2-1.8-1.3-4.8-79.1-21.3-18.9 3.8-1.3 4 3.4 2.6 3 8.4-5.7 3.9zm147.7-12l-18.3-53.5 38.4 41.3zm31.8-26.5l-42-37.9 53.7 17.5zm18.4-37.3l-55.6-10.4 54.9-13.1zm-0.2-44.4l-52.8 20.2 39.9-39.9zm-28-32.5l-40.6 39.4 21.1-52.4z"/><path class="c" d="m-57.9 310.2l-19.3 0.7-3.9-57.1-7.3-4-1.7-5.6-7.3-3.9 0.2-29.8 9.4-2.8 4.5-5.4 57 2.2 80.5-18.1 5.7-4.7 4.8 5.7-3.7 38.9 7.9 5.8 0.3 11.2-10.2 10.2-4.4 43.3-4.4 2.3-4.8-2.6-0.5-5-74.7-33.8-19.2 0.7-2 3.7 3.1 3.2 1.6 8.7-6.3 2.9zm147.7 12.1l-9.5-55.8 31.3 47.1zm35.7-21.1l-35.4-44.1 50.2 25.9zm24.2-33.8l-53.2-19.3 56.3-4zm7-43.9l-55.4 11.4 45.9-32.9zm-22.4-36.6l-46.5 32.3 29.3-48.3z"/><path class="d" d="m-41 82l-17.9-7.1 19.5-53.9-5.1-6.5 0.7-5.8-5.1-6.6 12.2-27.1 9.7 1.2 6.3-3.2 51.2 25 81 15.9 7.1-2.1 2.1 7.1-19 34.2 4.9 8.5-4.2 10.4-13.5 5.2-21.4 37.9-5 0.3-3.4-4.3 1.6-4.8-54.7-60.9-17.9-7.2-3.3 2.6 1.5 4.1-2.1 8.6-6.9 0.2zm130.3 70.5l13.8-54.8 9.7 55.6zm41.2-4.9l-14.6-54.7 35.5 44zm35.7-21.2l-40.9-39.1 53.2 19zm24-37.4l-55.3-11.8 55.3-11.6zm-5.8-42.6l-55.5 10.8 46.2-32.4z"/></svg>